<?xml version="1.0" standalone="no"?>
<!DOCTYPE svg PUBLIC "-//W3C//DTD SVG 20010904//EN"
 "http://www.w3.org/TR/2001/REC-SVG-20010904/DTD/svg10.dtd">
<svg version="1.0" xmlns="http://www.w3.org/2000/svg"
 width="1500.000000pt" height="1500.000000pt" viewBox="0 0 1500.000000 1500.000000"
 preserveAspectRatio="xMidYMid meet">
<metadata>
Created by potrace 1.14, written by Peter Selinger 2001-2017
</metadata>
<g transform="translate(0.000000,1500.000000) scale(0.100000,-0.100000)"
fill="#000000" stroke="none">
<path d="M7336 12782 c-2 -1 -54 -5 -117 -7 -132 -6 -198 -11 -289 -20 -36 -4
-78 -9 -95 -10 -45 -5 -127 -15 -155 -20 -14 -2 -56 -9 -95 -15 -152 -24 -165
-27 -340 -65 -179 -40 -189 -43 -192 -45 -2 -2 -6 -3 -10 -4 -10 -2 -103 -26
-121 -32 -7 -2 -14 -4 -17 -4 -3 0 -21 -6 -40 -14 -19 -8 -35 -13 -35 -11 0 7
-345 -114 -450 -158 -14 -6 -27 -11 -30 -12 -3 -1 -22 -9 -44 -18 -21 -9 -40
-17 -42 -17 -1 0 -42 -18 -91 -41 -48 -23 -105 -48 -125 -56 -21 -8 -38 -20
-38 -26 0 -6 -3 -8 -6 -4 -9 8 -172 -78 -397 -209 -174 -102 -369 -230 -375
-246 -2 -4 -8 -8 -14 -8 -6 0 -24 -11 -42 -25 -17 -14 -87 -69 -156 -122 -69
-53 -141 -110 -161 -127 -19 -17 -64 -56 -99 -86 -147 -127 -392 -371 -512
-511 -26 -30 -56 -65 -68 -79 -12 -14 -35 -40 -51 -57 -16 -18 -29 -35 -29
-38 0 -3 -9 -16 -20 -28 -41 -44 -111 -137 -199 -263 -50 -71 -94 -133 -98
-139 -28 -37 -83 -126 -83 -135 0 -5 -4 -10 -10 -10 -5 0 -10 -7 -10 -15 0 -8
-4 -15 -10 -15 -5 0 -10 -5 -10 -10 0 -6 -11 -27 -23 -48 -13 -20 -36 -59 -52
-87 -15 -27 -49 -89 -76 -137 -72 -129 -226 -456 -254 -538 -1 -3 -5 -14 -10
-25 -4 -11 -17 -42 -27 -70 -10 -27 -23 -59 -28 -70 -11 -24 -99 -286 -105
-312 -2 -10 -13 -47 -24 -83 -23 -73 -50 -173 -57 -210 -3 -14 -12 -52 -21
-85 -8 -33 -17 -71 -19 -85 -4 -19 -20 -101 -29 -140 0 -3 -4 -27 -9 -53 -4
-27 -9 -57 -11 -67 -6 -31 -14 -84 -20 -135 -3 -27 -8 -61 -11 -75 -5 -26 -8
-60 -19 -175 -3 -38 -8 -88 -11 -111 -3 -23 -7 -99 -10 -170 -2 -71 -5 -150
-7 -177 -1 -26 1 -47 5 -47 4 0 4 -10 -1 -22 -4 -12 -5 -37 -1 -55 5 -18 5
-35 1 -37 -3 -2 -5 -24 -4 -48 2 -23 5 -81 7 -128 4 -89 13 -221 22 -305 3
-27 6 -68 8 -90 2 -22 6 -53 9 -70 4 -16 9 -52 12 -80 5 -50 10 -83 21 -140 3
-16 7 -43 9 -60 4 -29 6 -41 19 -95 3 -14 8 -36 10 -50 5 -29 41 -186 56 -245
6 -22 13 -49 15 -60 9 -40 86 -300 95 -320 10 -22 23 -67 22 -75 0 -3 4 -11
10 -18 6 -6 7 -12 3 -12 -4 0 -2 -6 4 -14 7 -8 13 -22 16 -32 2 -11 15 -50 29
-89 29 -76 31 -82 70 -168 14 -32 26 -60 26 -63 0 -30 247 -514 320 -629 11
-16 23 -37 27 -45 12 -23 106 -174 113 -180 3 -3 21 -30 40 -60 19 -30 37 -57
40 -60 4 -3 25 -32 47 -65 22 -33 54 -76 69 -97 16 -20 38 -49 49 -64 25 -34
165 -207 174 -214 3 -3 31 -34 61 -70 30 -35 62 -72 70 -80 8 -9 39 -42 68
-73 29 -31 57 -57 63 -57 5 0 9 -4 9 -10 0 -9 25 -36 70 -75 l23 -20 -10 20
c-20 40 4 195 30 195 17 0 117 72 163 117 48 48 117 148 117 170 0 7 4 13 9
13 4 0 8 8 8 18 0 10 4 22 9 28 6 5 13 24 16 43 3 19 8 38 10 41 5 9 16 71 19
109 1 15 4 31 8 36 3 6 2 19 -2 30 -4 11 -4 32 1 48 4 15 4 27 -1 27 -4 0 -6
9 -3 19 3 10 0 43 -6 73 -40 201 -37 238 25 273 46 26 88 34 208 40 130 6 244
60 431 200 47 36 116 81 153 99 54 27 195 121 247 163 72 58 220 129 295 139
76 11 214 5 238 -10 6 -3 15 8 22 28 12 38 68 93 109 107 22 8 55 49 113 142
24 37 128 219 128 223 0 8 55 89 63 92 4 2 7 9 7 15 0 6 17 27 39 47 32 29 40
45 47 90 5 30 9 60 9 65 0 6 18 43 39 84 43 83 54 162 31 218 -8 18 -11 33 -8
33 3 0 1 6 -4 13 -5 6 -16 32 -23 57 -7 25 -16 50 -20 55 -3 6 -6 17 -5 25 1
8 -3 26 -7 39 -13 35 -28 154 -35 261 -6 101 -17 123 -45 89 -10 -11 -21 -18
-26 -15 -23 14 -57 186 -67 336 -6 98 -17 185 -24 198 -6 10 -13 8 -33 -8 -14
-11 -31 -20 -37 -20 -20 0 -11 70 14 118 28 52 31 77 13 89 -20 12 -32 10 -46
-9 -18 -24 -57 -25 -47 0 4 9 11 32 17 50 5 19 18 55 30 80 22 52 27 69 33
125 4 35 2 38 -18 37 -35 -3 -47 -1 -47 9 0 5 16 45 36 88 31 67 74 191 74
215 0 15 -33 8 -45 -9 -12 -16 -14 -13 -20 21 -6 30 -1 58 24 132 32 93 37
154 14 162 -7 2 -13 -3 -13 -11 0 -8 -7 -18 -16 -21 -13 -5 -15 0 -11 27 11
66 54 177 70 177 6 0 7 3 4 6 -8 8 39 70 113 147 30 32 61 75 69 95 8 20 26
66 41 102 49 117 48 116 56 175 3 22 13 51 22 64 62 88 71 142 23 126 -26 -8
-26 -8 0 50 l21 47 -20 21 -21 20 32 41 c17 23 34 43 37 46 8 8 40 80 40 90 0
6 -6 10 -14 10 -27 0 -25 15 5 49 36 41 51 96 51 181 0 66 -2 84 -26 200 -13
61 -12 66 5 78 11 7 19 21 19 30 0 24 -31 80 -80 144 -43 56 -46 70 -29 115 6
15 10 28 9 28 -1 0 3 13 9 28 6 15 13 42 16 59 8 45 12 48 45 35 16 -6 31 -9
34 -6 3 3 -1 23 -8 44 -26 75 6 172 85 259 40 44 47 48 76 42 42 -10 60 -27
123 -121 60 -89 74 -102 145 -141 67 -36 121 -95 142 -154 16 -45 22 -52 75
-75 32 -15 68 -25 80 -23 13 2 35 -11 62 -37 22 -23 52 -50 66 -60 23 -18 78
-96 73 -102 -3 -3 4 -24 24 -73 32 -79 78 -227 88 -283 5 -30 13 -42 38 -53
111 -52 198 -129 236 -208 25 -54 27 -92 5 -100 -21 -8 -90 -7 -141 3 -43 8
-76 0 -54 -13 6 -4 9 -12 6 -17 -4 -5 -2 -9 3 -9 6 0 20 -21 31 -46 22 -46 24
-104 5 -174 -12 -47 -16 -100 -10 -135 8 -43 66 -103 146 -151 14 -9 38 -33
53 -55 l28 -39 -39 0 c-62 0 -48 -23 55 -86 51 -32 93 -62 93 -66 0 -4 -3 -7
-7 -7 -15 3 -93 -14 -93 -20 1 -12 27 -41 37 -41 15 0 43 -34 43 -53 0 -8 -9
-19 -20 -22 -13 -4 -20 -15 -20 -30 0 -20 7 -26 41 -35 23 -6 46 -9 53 -7 6 3
20 -1 30 -8 17 -13 17 -14 -3 -32 -21 -18 -30 -83 -11 -83 20 0 64 -57 92
-119 16 -36 33 -73 37 -81 4 -8 25 -24 47 -35 145 -75 208 -123 218 -167 3
-15 15 -30 28 -33 30 -10 93 -79 136 -150 47 -77 48 -79 107 -139 54 -54 82
-78 105 -89 8 -4 33 -18 55 -31 22 -13 83 -46 135 -73 138 -72 141 -74 210
-133 35 -31 93 -59 132 -65 126 -18 175 -40 205 -94 13 -22 53 -66 89 -98 120
-105 153 -142 190 -221 93 -198 121 -239 164 -244 64 -8 238 -122 261 -171 22
-48 46 -84 78 -117 59 -63 106 -174 125 -295 2 -16 7 -49 11 -73 4 -24 8 -60
10 -80 6 -65 31 -188 43 -206 3 -6 7 -16 8 -23 1 -6 16 -49 34 -94 54 -141
126 -234 214 -277 86 -42 137 -51 292 -48 157 3 199 -2 240 -29 31 -20 30 -22
-21 -27 -45 -5 -121 -37 -165 -68 -15 -11 -55 -34 -89 -50 -64 -32 -64 -33
-36 -104 9 -20 -8 -36 -41 -36 -21 0 -84 -58 -84 -77 0 -16 -25 -23 -86 -23
-49 0 -55 -2 -69 -30 -9 -16 -19 -30 -23 -30 -4 0 -33 13 -64 29 -31 16 -69
31 -84 33 -27 3 -29 0 -32 -34 -2 -21 -6 -38 -10 -38 -4 0 -25 11 -48 23 -63
37 -84 40 -84 12 0 -66 -58 -46 -161 57 -67 66 -92 83 -150 101 -10 3 -25 33
-38 79 -12 40 -35 114 -51 165 -28 84 -34 126 -42 290 -2 41 -4 43 -38 48 -50
8 -65 19 -66 46 -2 72 -15 105 -45 116 -16 6 -29 15 -28 20 7 43 -8 70 -45 77
-40 7 -37 1 -50 91 -16 105 -47 139 -72 79 -16 -37 -35 -164 -25 -164 3 0 7
-17 9 -38 2 -42 6 -60 16 -84 4 -9 9 -22 10 -30 1 -7 12 -35 25 -63 12 -27 30
-68 38 -90 9 -22 23 -48 32 -59 9 -10 14 -19 12 -20 -2 0 3 -21 10 -46 6 -25
14 -60 15 -79 5 -45 25 -90 44 -96 8 -3 36 -36 62 -74 l47 -68 -33 -39 c-40
-48 -72 -115 -82 -174 -4 -25 -9 -47 -9 -50 -1 -3 -5 -24 -10 -47 -4 -24 -10
-43 -14 -43 -4 0 -8 -12 -9 -26 -1 -15 -6 -32 -10 -38 -5 -6 -19 -40 -32 -76
-13 -36 -27 -69 -31 -75 -6 -8 -36 -104 -56 -179 -4 -12 -7 -76 -7 -143 -1
-112 -3 -123 -24 -148 -46 -53 -108 -151 -131 -209 -22 -54 -23 -59 -7 -68 17
-10 147 -107 156 -117 10 -11 116 -79 150 -96 19 -10 44 -29 55 -44 20 -26
117 -123 284 -285 50 -49 112 -120 137 -157 25 -38 50 -69 55 -69 13 0 79 -72
79 -86 0 -7 4 -14 8 -16 5 -1 26 -38 47 -81 21 -44 56 -97 77 -120 l38 -41 0
-113 c0 -69 4 -113 10 -113 6 0 10 5 10 10 0 6 9 10 20 10 11 0 20 4 20 9 0 5
19 18 43 30 45 23 169 99 177 110 8 10 43 31 63 37 9 4 17 10 17 15 0 5 5 9
11 9 6 0 17 6 24 13 8 6 29 22 47 35 128 87 348 261 506 399 86 75 415 404
467 467 22 27 49 58 61 70 11 11 50 57 85 101 35 44 67 82 70 85 3 3 32 41 64
85 32 44 62 82 65 85 4 3 15 20 25 37 11 18 23 33 27 33 4 0 8 5 8 12 0 6 7
18 15 27 25 26 214 322 266 415 10 17 26 47 37 66 87 157 279 555 286 595 2 5
11 28 21 50 10 22 19 45 21 50 1 6 21 60 43 120 22 61 41 116 41 123 0 6 5 12
12 12 6 0 9 3 5 6 -3 3 1 27 9 52 30 93 105 358 109 382 2 14 4 25 5 25 4 0
77 351 85 410 3 22 10 65 15 95 10 59 17 117 35 285 22 204 35 651 20 675 -3
6 -1 10 5 10 6 0 8 4 5 10 -3 5 -8 58 -10 117 -3 60 -7 133 -9 163 -13 153
-17 197 -21 220 -2 14 -7 50 -10 80 -3 30 -8 66 -10 80 -3 14 -7 39 -9 55 -6
34 -24 145 -32 190 -3 17 -10 50 -15 75 -6 25 -12 58 -14 73 -5 32 -64 264
-72 287 -3 8 -8 23 -10 33 -3 18 -40 141 -50 167 -3 8 -8 23 -9 32 -12 60
-165 455 -227 588 -12 25 -21 48 -19 53 1 4 -3 7 -8 7 -6 0 -10 6 -10 13 0 18
-128 265 -212 410 -39 67 -77 134 -84 148 -8 15 -21 32 -29 39 -8 7 -15 17
-15 22 0 11 -189 293 -217 323 -10 11 -26 32 -36 47 -19 30 -218 279 -245 306
-9 10 -44 49 -77 86 -103 117 -317 330 -486 481 -37 33 -227 189 -264 217 -5
4 -23 18 -40 31 -197 153 -514 356 -750 482 -111 59 -130 69 -135 70 -15 4
-86 41 -88 48 -2 4 -8 5 -13 1 -5 -3 -9 0 -9 5 0 6 -5 11 -11 11 -6 0 -48 16
-93 36 -44 20 -99 45 -122 55 -22 10 -65 27 -95 39 -30 11 -63 24 -74 29 -123
54 -536 185 -677 215 -13 3 -51 12 -85 20 -34 9 -77 18 -95 21 -18 3 -40 8
-48 10 -20 6 -55 13 -160 31 -64 12 -95 16 -117 17 -13 1 -23 5 -23 10 0 4 -3
6 -7 4 -7 -4 -83 3 -183 18 -19 3 -64 7 -100 10 -36 3 -85 8 -110 10 -127 11
-587 25 -594 17z"/>
<path d="M7070 6147 c0 -3 -7 -32 -15 -64 -9 -32 -18 -76 -21 -98 -20 -138
-46 -223 -91 -287 -14 -21 -27 -52 -29 -70 -4 -29 -13 -82 -30 -158 -14 -64
-16 -78 -24 -125 -12 -73 -5 -213 13 -264 15 -41 15 -44 -4 -48 -10 -3 -19 -9
-19 -14 0 -5 -4 -9 -9 -9 -34 0 -96 -66 -105 -111 -2 -8 -100 -153 -108 -159
-4 -3 -19 -32 -33 -63 -22 -48 -25 -60 -14 -73 17 -21 74 -48 134 -64 28 -7
68 -25 90 -40 22 -15 58 -31 80 -35 56 -11 53 -11 119 -30 32 -9 64 -18 70
-19 6 -2 45 -13 86 -26 41 -13 80 -25 85 -26 16 -4 187 -65 220 -78 17 -7 55
-23 85 -36 95 -39 338 -159 415 -205 41 -24 75 -43 76 -42 12 30 18 302 8 372
-5 33 -11 80 -15 105 -3 25 -10 53 -15 63 -6 9 -7 17 -4 17 3 0 -1 16 -9 35
-8 19 -13 35 -11 35 5 0 -30 100 -51 147 -10 21 -25 42 -33 47 -52 32 -149
143 -158 181 -1 5 -7 28 -12 50 -5 22 -11 56 -14 75 -3 19 -15 80 -27 135 -12
55 -24 111 -27 125 -3 14 -6 70 -8 125 -2 104 -11 155 -26 155 -5 0 -9 6 -9
14 0 8 -3 16 -7 18 -5 2 -26 39 -48 83 -50 100 -69 129 -123 182 -49 49 -100
79 -113 66 -8 -8 -2 -39 17 -88 7 -19 7 -19 -13 -2 -26 23 -39 22 -57 -5 -13
-19 -16 -20 -16 -5 0 17 -38 39 -53 30 -4 -2 -2 -13 3 -24 6 -10 8 -19 4 -19
-3 0 -1 -6 5 -14 15 -18 0 -28 -19 -13 -18 15 -34 48 -50 107 -18 65 -33 104
-45 115 -21 21 -45 37 -45 32z"/>
<path d="M6459 5799 c-13 -21 -27 -39 -31 -39 -5 0 -8 -5 -8 -12 0 -6 -6 -19
-14 -27 -31 -35 -107 -202 -126 -277 -11 -43 -21 -109 -21 -147 l-1 -67 -46
-32 c-123 -84 -217 -165 -273 -235 -19 -24 -25 -16 81 -98 36 -28 67 -53 70
-56 8 -9 102 -59 111 -59 4 0 26 26 49 58 22 31 56 77 75 102 40 52 87 138
105 194 7 21 13 98 15 170 1 72 7 149 13 171 6 22 13 57 16 79 4 21 8 42 11
46 2 3 7 22 10 41 3 19 8 41 10 49 5 19 17 107 19 139 1 16 -6 26 -20 31 -17
7 -25 2 -45 -31z"/>
<path d="M8417 5368 c8 -40 16 -82 18 -93 2 -11 10 -47 18 -80 21 -83 31 -140
41 -230 7 -60 15 -74 39 -69 11 2 25 10 29 19 5 8 15 15 23 15 12 0 11 -10 -6
-52 -29 -73 -79 -235 -94 -306 -3 -12 -7 -32 -10 -44 -3 -13 -8 -36 -10 -53
-3 -16 -8 -37 -10 -45 -2 -8 -7 -37 -11 -65 -3 -27 -8 -57 -9 -66 -14 -73 -26
-395 -17 -446 3 -16 16 -24 50 -34 26 -6 52 -13 57 -15 6 -2 60 -21 120 -42
61 -22 113 -40 118 -41 4 -1 8 -1 10 -2 21 -6 87 -8 85 -2 -4 12 33 93 42 93
9 0 63 135 81 200 16 56 14 47 23 105 20 118 23 146 31 265 3 52 7 110 9 128
1 17 -2 32 -7 32 -4 0 -5 6 0 12 4 7 8 69 10 137 l2 125 -37 45 c-20 25 -75
82 -121 126 -250 236 -351 344 -351 373 0 4 -15 25 -34 45 -27 29 -41 37 -69
37 l-35 0 15 -72z"/>
</g>
</svg>
